<?xml version="1.0" encoding="UTF-8" standalone="no"?>
<!DOCTYPE svg PUBLIC "-//W3C//DTD SVG 1.1//EN" "http://www.w3.org/Graphics/SVG/1.1/DTD/svg11.dtd">
<svg width="100%" height="100%" viewBox="0 0 145 145" version="1.1" xmlns="http://www.w3.org/2000/svg" xmlns:xlink="http://www.w3.org/1999/xlink" xml:space="preserve" xmlns:serif="http://www.serif.com/" style="fill-rule:evenodd;clip-rule:evenodd;stroke-linejoin:round;stroke-miterlimit:2;">
    <g transform="matrix(1,0,0,1,3,14)">
        <path d="M137.124,90.563L73.371,2.241C71.364,-0.516 66.738,-0.516 64.751,2.241L0.998,90.563C0.349,91.467 0,92.552 0,93.664C0.003,95.949 1.475,97.99 3.643,98.714L67.397,119.565L67.407,119.565C68.477,119.914 69.631,119.914 70.701,119.565L70.711,119.565L134.464,98.715C136.077,98.193 137.342,96.923 137.858,95.309C138.39,93.7 138.111,91.93 137.109,90.563L137.124,90.563ZM69.064,14.412L94.617,49.815L70.721,42.002C70.536,41.942 70.341,41.952 70.157,41.908C69.976,41.863 69.792,41.833 69.607,41.818C69.423,41.793 69.248,41.723 69.064,41.723C68.879,41.723 68.709,41.793 68.524,41.818C68.34,41.838 68.155,41.868 67.976,41.908C67.786,41.943 67.591,41.943 67.422,42.002L43.67,49.77L43.52,49.82L69.074,14.41L69.064,14.41L69.064,14.412ZM32.96,64.438L60.779,55.334L63.749,54.367L63.749,107.205L13.869,90.887L32.959,64.438L32.96,64.438ZM74.384,107.195L74.384,54.367L105.172,64.438L124.263,90.872L74.379,107.195L74.384,107.195Z" style="fill:rgb(229,32,233);fill-rule:nonzero;"/>
    </g>
    <g id="Artboard1" transform="matrix(1.705882,0,0,5,-1079.823529,-315)">
        <rect x="633" y="63" width="85" height="29" style="fill:none;"/>
    </g>
</svg>
