<?xml version="1.0" encoding="UTF-8" standalone="no"?>
<!DOCTYPE svg PUBLIC "-//W3C//DTD SVG 1.1//EN" "http://www.w3.org/Graphics/SVG/1.1/DTD/svg11.dtd">
<svg width="100%" height="100%" viewBox="0 0 45 32" version="1.1" xmlns="http://www.w3.org/2000/svg" xmlns:xlink="http://www.w3.org/1999/xlink" xml:space="preserve" xmlns:serif="http://www.serif.com/" style="fill-rule:evenodd;clip-rule:evenodd;stroke-linecap:round;">
    <g id="Artboard1" transform="matrix(0.9375,0,0,0.842105,2.8125,5.894737)">
        <rect x="-3" y="-7" width="48" height="38" style="fill:none;"/>
        <clipPath id="_clip1">
            <rect x="-3" y="-7" width="48" height="38"/>
        </clipPath>
        <g clip-path="url(#_clip1)">
            <g transform="matrix(1.066667,0,0,1.1875,-3,-5.8125)">
                <path d="M22.254,5.085L22.254,0.898" style="fill:none;fill-rule:nonzero;stroke:black;stroke-width:1.26px;"/>
            </g>
            <g transform="matrix(1.066667,0,0,1.1875,-3,-5.8125)">
                <path d="M25.422,6.02L27.516,2.395" style="fill:none;fill-rule:nonzero;stroke:black;stroke-width:1.26px;"/>
            </g>
            <g transform="matrix(1.066667,0,0,1.1875,-3,-5.8125)">
                <path d="M19.09,6.02L16.996,2.395" style="fill:none;fill-rule:nonzero;stroke:black;stroke-width:1.26px;"/>
            </g>
            <g transform="matrix(1.066667,0,0,1.1875,-3,-5.8125)">
                <path d="M29.697,27.881C28.683,27.056 27.398,25.218 26.86,23.41C26.187,21.149 24.731,18.922 24.407,18.36C24.12,17.862 25.032,16.053 26.86,17.496C28.322,18.65 29.36,20.637 29.697,21.486C29.833,21.83 31.054,23.887 30.699,17.061C30.586,14.903 30.295,13.356 30.159,10.229C30.052,7.775 30.698,6.948 31.688,6.948C32.679,6.948 33.495,7.27 33.495,9.773C33.495,6.891 34.113,6.242 35.467,6.242C36.596,6.242 37.102,7.205 37.102,8.166L37.102,9.797C37.102,8.166 38.187,8.013 38.745,8.013C39.303,8.013 40.42,8.497 40.42,9.797L40.42,13.056C40.42,11.488 41.399,11.031 42.137,11.081C43.099,11.145 43.534,11.826 43.401,13.356C43.306,14.448 43.016,17.641 43.016,18.696C43.016,19.643 43.401,21.606 43.016,23.41C42.794,24.45 42.247,27.207 39.458,28.458C36.669,29.708 31.765,29.564 29.697,27.881Z" style="fill:rgb(255,255,139);fill-rule:nonzero;"/>
            </g>
            <g transform="matrix(1.066667,0,0,1.1875,-3,-5.8125)">
                <path d="M33.495,9.773C33.495,7.27 32.679,6.948 31.688,6.948C30.698,6.948 30.052,7.775 30.159,10.229C30.295,13.356 30.586,14.903 30.699,17.061C31.054,23.887 29.833,21.83 29.697,21.486C29.36,20.637 28.322,18.65 26.86,17.496C25.032,16.053 24.12,17.862 24.407,18.36C24.731,18.922 26.187,21.149 26.86,23.41C27.398,25.218 28.683,27.056 29.697,27.881C31.765,29.564 36.669,29.708 39.458,28.458C42.247,27.207 42.794,24.45 43.016,23.41C43.401,21.606 43.016,19.643 43.016,18.696C43.016,17.641 43.306,14.448 43.401,13.356C43.534,11.826 43.099,11.145 42.137,11.081C41.399,11.031 40.42,11.488 40.42,13.056M33.495,9.773C33.495,10.546 33.752,14.673 33.832,17.061M33.495,9.773L33.832,17.061M33.495,9.773C33.495,6.891 34.113,6.242 35.467,6.242C36.596,6.242 37.102,7.205 37.102,8.166L37.102,9.797M33.832,17.061L37.102,17.496M37.102,17.496L37.102,9.797M37.102,17.496L40.131,17.975L40.42,13.056M37.102,9.797C37.102,8.166 38.187,8.013 38.745,8.013C39.303,8.013 40.42,8.497 40.42,9.797L40.42,13.056" style="fill:none;fill-rule:nonzero;stroke:black;stroke-width:1.26px;stroke-linecap:butt;"/>
            </g>
            <g transform="matrix(1.066667,0,0,1.1875,-3,-5.8125)">
                <path d="M14.85,27.881C15.863,27.056 17.149,25.218 17.687,23.41C18.36,21.149 19.816,18.922 20.139,18.36C20.426,17.862 19.514,16.053 17.687,17.496C16.225,18.65 15.187,20.637 14.85,21.486C14.714,21.83 13.493,23.887 13.848,17.061C13.961,14.903 14.252,13.356 14.388,10.229C14.495,7.775 13.849,6.948 12.859,6.948C11.868,6.948 11.051,7.27 11.051,9.773C11.051,6.891 10.434,6.242 9.08,6.242C7.951,6.242 7.445,7.205 7.445,8.166L7.445,9.797C7.445,8.166 6.36,8.013 5.802,8.013C5.244,8.013 4.127,8.497 4.127,9.797L4.127,13.056C4.127,11.488 3.148,11.031 2.41,11.081C1.448,11.145 1.013,11.826 1.146,13.356C1.24,14.448 1.531,17.641 1.531,18.696C1.531,19.643 1.146,21.606 1.531,23.41C1.753,24.45 2.3,27.207 5.089,28.458C7.878,29.708 12.782,29.564 14.85,27.881Z" style="fill:rgb(255,255,139);fill-rule:nonzero;"/>
            </g>
            <g transform="matrix(1.066667,0,0,1.1875,-3,-5.8125)">
                <path d="M11.051,9.773C11.051,7.27 11.868,6.948 12.859,6.948C13.849,6.948 14.495,7.775 14.388,10.229C14.252,13.356 13.961,14.903 13.848,17.061C13.493,23.887 14.714,21.83 14.85,21.486C15.187,20.637 16.225,18.65 17.687,17.496C19.514,16.053 20.426,17.862 20.139,18.36C19.816,18.922 18.36,21.149 17.687,23.41C17.149,25.218 15.863,27.056 14.85,27.881C12.782,29.564 7.878,29.708 5.089,28.458C2.3,27.207 1.753,24.45 1.531,23.41C1.146,21.606 1.531,19.643 1.531,18.696C1.531,17.641 1.24,14.448 1.146,13.356C1.013,11.826 1.448,11.145 2.41,11.081C3.148,11.031 4.127,11.488 4.127,13.056M11.051,9.773C11.051,10.546 10.795,14.673 10.715,17.061M11.051,9.773L10.715,17.061M11.051,9.773C11.051,6.891 10.434,6.242 9.08,6.242C7.951,6.242 7.445,7.205 7.445,8.166L7.445,9.797M10.715,17.061L7.445,17.496M7.445,17.496L7.445,9.797M7.445,17.496L4.416,17.975L4.127,13.056M7.445,9.797C7.445,8.166 6.36,8.013 5.802,8.013C5.244,8.013 4.127,8.497 4.127,9.797L4.127,13.056" style="fill:none;fill-rule:nonzero;stroke:black;stroke-width:1.26px;stroke-linecap:butt;"/>
            </g>
        </g>
    </g>
</svg>
