<?xml version="1.0" encoding="UTF-8" standalone="no"?>
<!DOCTYPE svg PUBLIC "-//W3C//DTD SVG 1.1//EN" "http://www.w3.org/Graphics/SVG/1.1/DTD/svg11.dtd">
<svg width="100%" height="100%" viewBox="0 0 182 206" version="1.1" xmlns="http://www.w3.org/2000/svg" xmlns:xlink="http://www.w3.org/1999/xlink" xml:space="preserve" xmlns:serif="http://www.serif.com/" style="fill-rule:evenodd;clip-rule:evenodd;stroke-linejoin:round;stroke-miterlimit:2;">
    <g id="Artboard1" transform="matrix(0.816143,0,0,0.840816,6.529148,12.612245)">
        <rect x="-8" y="-15" width="223" height="245" style="fill:none;"/>
        <g id="Vectors" transform="matrix(1.225275,0,0,1.18932,-3.098901,-11.432039)">
            <g>
                <g>
                    <g>
                        <path d="M86.6,0L0,50L0,150L86.6,200L119.08,181.25L119.08,143.75L86.6,162.5L32.48,131.25L32.48,68.75L86.6,37.5L140.73,68.75L140.73,193.75L173.21,175L173.21,50L86.6,0Z" style="fill:rgb(220,36,76);fill-rule:nonzero;"/>
                        <path d="M54.13,81.25L54.13,118.75L86.6,137.5L119.08,118.75L119.08,81.25L86.6,62.5L54.13,81.25Z" style="fill:rgb(220,36,76);fill-rule:nonzero;"/>
                    </g>
                    <g>
                        <path d="M119.08,143.75L119.08,181.25L86.6,200L86.6,162.5L119.08,143.75Z" style="fill:rgb(158,13,56);fill-rule:nonzero;"/>
                        <path d="M173.21,50L173.21,175L140.73,193.75L140.73,68.75L173.21,50Z" style="fill:rgb(158,13,56);fill-rule:nonzero;"/>
                        <path d="M173.21,50L140.73,68.75L86.6,37.5L32.48,68.75L0,50L86.6,0L173.21,50Z" style="fill:rgb(255,81,107);fill-rule:nonzero;"/>
                        <path d="M86.6,162.5L86.6,200L0,150L0,50L32.48,68.75L32.48,131.25L86.6,162.5Z" style="fill:rgb(220,36,76);fill-rule:nonzero;"/>
                        <path d="M119.08,81.25L86.6,100L54.13,81.25L86.6,62.5L119.08,81.25Z" style="fill:rgb(255,81,107);fill-rule:nonzero;"/>
                        <path d="M86.6,100L86.6,137.5L54.13,118.75L54.13,81.25L86.6,100Z" style="fill:rgb(220,36,76);fill-rule:nonzero;"/>
                        <path d="M119.08,81.25L119.08,118.75L86.6,137.5L86.6,100L119.08,81.25Z" style="fill:rgb(158,13,56);fill-rule:nonzero;"/>
                    </g>
                </g>
            </g>
        </g>
    </g>
</svg>
