<?xml version="1.0" encoding="UTF-8" standalone="no"?>
<!DOCTYPE svg PUBLIC "-//W3C//DTD SVG 1.1//EN" "http://www.w3.org/Graphics/SVG/1.1/DTD/svg11.dtd">
<svg width="100%" height="100%" viewBox="0 0 265 226" version="1.1" xmlns="http://www.w3.org/2000/svg" xmlns:xlink="http://www.w3.org/1999/xlink" xml:space="preserve" xmlns:serif="http://www.serif.com/" style="fill-rule:evenodd;clip-rule:evenodd;stroke-linejoin:round;stroke-miterlimit:2;">
    <g id="Artboard1" transform="matrix(1.027132,0,0,1.027273,11.29845,6.163636)">
        <rect x="-11" y="-6" width="258" height="220" style="fill:none;"/>
        <g id="Layer_1-2" transform="matrix(0.973585,0,0,0.973451,6.524528,5.681416)">
            <g>
                <g>
                    <path d="M231.34,108.7L229.86,107.15L219.6,107.15L223.19,31.29L208.39,30.84L205.62,80.15C146.02,76.91 86.29,76.91 26.7,80.13L24.97,15.17L10.17,15.62L12.67,107.15L2.16,107.15L0.75,108.62C-0.8,124.85 0.09,141.3 3.01,157.51L13.84,157.51L14.02,158.78C14.69,178.12 30.12,193.46 49.92,193.46C69.72,193.46 94.78,192.54 116.04,192.54C137.3,192.54 162.6,193.46 181.99,193.46C201.38,193.46 217.18,178.17 217.89,158.85L218.05,157.51L229.07,157.51C231.98,141.32 232.88,124.9 231.33,108.7L231.34,108.7ZM73.11,166.71C55.84,166.71 42.86,152.93 42.86,136.93C42.86,120.93 55.85,107.15 73.11,107.15C90.37,107.15 102.73,121.09 102.73,137.09C102.73,153.09 90.38,166.71 73.11,166.71ZM159.62,166.71C142.35,166.71 129.37,152.93 129.37,136.93C129.37,120.93 142.36,107.15 159.62,107.15C176.88,107.15 189.24,121.09 189.24,137.09C189.24,153.09 176.89,166.71 159.62,166.71Z" style="fill:rgb(66,38,170);fill-rule:nonzero;"/>
                    <path d="M111.77,22.4L93.39,49.97L93.52,50.48L185.88,38.51L190.95,27.68L114.32,36.55L117.7,31.48L117.7,31.47L138.38,0.49L138.25,0L47.67,11.6L42.85,22.27L118.34,12.61L111.77,22.4Z" style="fill:rgb(66,38,170);fill-rule:nonzero;"/>
                    <path d="M72.97,121.47C64.3,121.47 57.24,128.4 57.24,136.93C57.24,145.46 64.3,152.39 72.97,152.39C81.64,152.39 88.34,145.64 88.34,137.02C88.34,128.4 81.59,121.47 72.97,121.47Z" style="fill:rgb(66,38,170);fill-rule:nonzero;"/>
                    <path d="M159.48,121.47C150.81,121.47 143.75,128.4 143.75,136.93C143.75,145.46 150.81,152.39 159.48,152.39C168.15,152.39 174.85,145.64 174.85,137.02C174.85,128.4 168.1,121.47 159.48,121.47Z" style="fill:rgb(66,38,170);fill-rule:nonzero;"/>
                </g>
            </g>
        </g>
    </g>
</svg>
